<svg width="53" height="12" viewBox="0 0 53 12" fill="none" xmlns="http://www.w3.org/2000/svg">
<path d="M50.7222 11.8736V0.178015H53V11.8736H50.7222Z" fill="#F9F9FF"/>
<path d="M37.1286 11.8736L41.1228 0.178015H44.8442L48.9507 11.8736H46.6087L43.1279 1.73209L43.9459 2.08456H41.9408L42.775 1.73209L39.4064 11.8736H37.1286ZM39.9197 8.76547L40.6415 6.8429H45.3896L46.0954 8.76547H39.9197Z" fill="#F9F9FF"/>
<path d="M27.6118 11.9466V9.83178H30.034C30.6435 9.83178 31.1836 9.74099 31.6541 9.55941C32.1353 9.36716 32.5417 9.10013 32.8732 8.75835C33.2047 8.41656 33.456 8.01602 33.6271 7.55674C33.8089 7.08678 33.8998 6.56876 33.8998 6.00267C33.8998 5.41522 33.8089 4.89186 33.6271 4.43258C33.456 3.96262 33.2047 3.56208 32.8732 3.23097C32.5417 2.89987 32.1353 2.64886 31.6541 2.47797C31.1836 2.30708 30.6435 2.22163 30.034 2.22163H27.6118V0.106809H29.8896C30.9483 0.106809 31.8733 0.261682 32.6647 0.571429C33.456 0.881175 34.1137 1.30841 34.6377 1.85314C35.1617 2.38718 35.552 3.00134 35.8087 3.69559C36.076 4.37917 36.2097 5.08945 36.2097 5.82644V6.17891C36.2097 6.88384 36.076 7.5781 35.8087 8.26168C35.552 8.94526 35.1617 9.56475 34.6377 10.1202C34.1137 10.6756 33.456 11.1188 32.6647 11.4499C31.8733 11.781 30.9483 11.9466 29.8896 11.9466H27.6118ZM25.6548 11.9466V0.106809H27.9326V11.9466H25.6548Z" fill="#F9F9FF"/>
<path d="M17.9669 12C16.8761 12 15.9564 11.7917 15.2078 11.3752C14.4593 10.9586 13.8871 10.3765 13.4915 9.62884C13.1065 8.87049 12.914 7.98398 12.914 6.96929V0H15.1918V7.09746C15.1918 7.65287 15.2987 8.14419 15.5126 8.57143C15.7265 8.98798 16.0366 9.31375 16.443 9.54873C16.8601 9.77303 17.368 9.88518 17.9669 9.88518C18.555 9.88518 19.0523 9.77303 19.4587 9.54873C19.8757 9.31375 20.1859 8.98798 20.389 8.57143C20.6029 8.15487 20.7099 7.66355 20.7099 7.09746V0H22.9877V6.96929C22.9877 7.98398 22.7952 8.87049 22.4102 9.62884C22.0359 10.3765 21.4745 10.9586 20.7259 11.3752C19.9773 11.7917 19.0576 12 17.9669 12Z" fill="#F9F9FF"/>
<path d="M0 11.8736L3.99417 0.178015H7.71564L11.8221 11.8736H9.48014L5.99927 1.73209L6.81736 2.08456H4.81225L5.64637 1.73209L2.2778 11.8736H0ZM2.79111 8.76547L3.51294 6.8429H8.26103L8.96683 8.76547H2.79111Z" fill="#F9F9FF"/>
</svg>
