<svg width="16" height="15" viewBox="0 0 16 15" fill="none" xmlns="http://www.w3.org/2000/svg">
<path d="M5.92556 8.9773C4.61597 10.8766 3.2429 12.4977 2.50111 13.291C2.80954 13.6197 3.83618 14.4216 5.47527 15C5.90352 13.2356 6.50165 11.3585 7.26967 9.47312C7.38517 9.18958 7.68782 8.9844 7.99537 8.99065C8.30585 8.99697 8.53081 9.18734 8.65389 9.47089C9.11849 10.5412 9.91005 12.6149 10.4983 15C11.8201 14.5793 12.9878 13.6854 13.4064 13.291C12.6657 12.4989 11.3223 10.8815 10.0339 8.98595C9.1122 7.62979 6.85639 7.62731 5.92556 8.9773Z" fill="#F9F9FF"/>
<path d="M10.382 8.59498C12.6956 8.69166 14.8057 8.98946 15.8755 9.19403C15.992 8.75968 16.1311 7.46881 15.7547 5.78013C14.0236 6.35494 12.1062 6.84626 10.0917 7.1988C9.78873 7.25181 9.45331 7.10549 9.29552 6.84288C9.13622 6.57777 9.17917 6.28713 9.35559 6.03297C10.0215 5.07357 11.3694 3.30629 13.0905 1.5453C12.0308 0.653996 10.6495 0.143724 10.0913 1.40791e-06C9.80883 1.04462 9.14274 3.03509 8.21024 5.12671C7.5431 6.62311 8.73748 8.52626 10.382 8.59498Z" fill="#F9F9FF"/>
<path d="M5.61803 8.59498C3.30439 8.69166 1.19427 8.98946 0.124516 9.19403C0.00796396 8.75968 -0.131058 7.46881 0.245271 5.78012C1.97645 6.35493 3.89375 6.84626 5.90831 7.19879C6.21127 7.25181 6.54669 7.10549 6.70449 6.84288C6.86379 6.57777 6.82083 6.28713 6.64441 6.03297C5.97848 5.07357 4.6306 3.30629 2.90952 1.5453C3.96923 0.653993 5.35055 0.143722 5.90875 0C6.19117 1.04461 6.85726 3.03509 7.78976 5.12671C8.4569 6.62311 7.26252 8.52626 5.61803 8.59498Z" fill="#F9F9FF"/>
</svg>
